<svg width="18" height="22" viewBox="0 0 18 22" fill="none" xmlns="http://www.w3.org/2000/svg">
<path fill-rule="evenodd" clip-rule="evenodd" d="M17 22H1C0.447716 22 0 21.5523 0 21V1C0 0.447716 0.447715 0 1 0H10.5858C10.851 0 11.1054 0.105357 11.2929 0.292893L17.7071 6.70711C17.8946 6.89464 18 7.149 18 7.41421V21C18 21.5523 17.5523 22 17 22ZM15.75 20H2.25C2.11193 20 2 19.8881 2 19.75V2.25C2 2.11193 2.11193 2 2.25 2H9.75C9.88807 2 10 2.11193 10 2.25V7.75C10 7.88807 10.1119 8 10.25 8H15.75C15.8881 8 16 8.11193 16 8.25V19.75C16 19.8881 15.8881 20 15.75 20Z" fill="currentColor"/>
</svg>
