<svg width="26" height="30" viewBox="0 0 26 30" fill="none" xmlns="http://www.w3.org/2000/svg">
<path d="M24.6084 23.3791C24.1571 24.4272 23.6229 25.392 23.004 26.279C22.1604 27.4882 21.4697 28.3253 20.9374 28.7901C20.1122 29.553 19.228 29.9437 18.2813 29.9659C17.6016 29.9659 16.7819 29.7715 15.8278 29.3771C14.8706 28.9845 13.9908 28.7901 13.1865 28.7901C12.3429 28.7901 11.4381 28.9845 10.4703 29.3771C9.50111 29.7715 8.72031 29.9771 8.12334 29.9974C7.21544 30.0363 6.3105 29.6345 5.40721 28.7901C4.83068 28.2845 4.10956 27.4179 3.24569 26.1901C2.31882 24.8791 1.55681 23.3587 0.959837 21.6255C0.320498 19.7533 0 17.9404 0 16.1853C0 14.1748 0.43212 12.4407 1.29765 10.9876C1.97788 9.82045 2.88283 8.89973 4.01544 8.22383C5.14805 7.54792 6.37183 7.20349 7.68975 7.18145C8.41087 7.18145 9.35652 7.40571 10.5317 7.84643C11.7035 8.28864 12.456 8.51289 12.7858 8.51289C13.0325 8.51289 13.8684 8.25068 15.2854 7.72792C16.6254 7.24312 17.7563 7.04238 18.6828 7.12145C21.1934 7.32515 23.0796 8.32012 24.3339 10.1127C22.0886 11.4804 20.9779 13.3961 21 15.8536C21.0203 17.7678 21.711 19.3607 23.0685 20.6255C23.6837 21.2125 24.3708 21.6662 25.1352 21.9884C24.9694 22.4717 24.7944 22.9347 24.6084 23.3791ZM18.8505 0.600171C18.8505 2.10051 18.3052 3.50138 17.2185 4.79801C15.907 6.33944 14.3207 7.23015 12.6006 7.0896C12.5786 6.90961 12.5659 6.72017 12.5659 6.5211C12.5659 5.08078 13.1896 3.53934 14.2972 2.27901C14.8501 1.64088 15.5534 1.11028 16.4062 0.687019C17.2572 0.270069 18.0621 0.0394863 18.8191 0C18.8412 0.200572 18.8505 0.401157 18.8505 0.600151V0.600171Z" fill="white"/>
</svg>
