<svg width="320" height="48" viewBox="0 0 320 48" fill="none" xmlns="http://www.w3.org/2000/svg">
<path d="M82.1727 36.2249C79.364 36.2249 77.2733 35.2323 75.9006 33.2472C74.5491 31.2622 73.8733 28.4429 73.8733 24.7895C73.8733 21.1361 74.5491 18.3168 75.9006 16.3317C77.2733 14.3467 79.364 13.3541 82.1727 13.3541C83.2497 13.3541 84.1789 13.5019 84.9602 13.7976C85.7627 14.0721 86.449 14.4628 87.0192 14.9696C87.5894 15.4554 88.0646 16.0361 88.4447 16.7119C88.8459 17.3665 89.1733 18.074 89.4267 18.8342L86.2273 19.9112C86.0584 19.4044 85.8683 18.9293 85.6571 18.4858C85.4459 18.0423 85.182 17.6622 84.8652 17.3454C84.5484 17.0286 84.1683 16.7752 83.7248 16.5852C83.3025 16.3951 82.7745 16.3001 82.141 16.3001C80.5782 16.3001 79.4379 16.9019 78.7199 18.1057C78.0019 19.2883 77.6428 20.8932 77.6428 22.9206V26.6584C77.6428 28.6858 78.0019 30.3013 78.7199 31.505C79.4379 32.6876 80.5782 33.2789 82.141 33.2789C82.7745 33.2789 83.3025 33.1839 83.7248 32.9938C84.1683 32.8038 84.5484 32.5503 84.8652 32.2336C85.182 31.9168 85.4459 31.5367 85.6571 31.0932C85.8683 30.6497 86.0584 30.1746 86.2273 29.6677L89.4267 30.7448C89.1733 31.505 88.8459 32.223 88.4447 32.8988C88.0646 33.5535 87.5894 34.1342 87.0192 34.641C86.449 35.1267 85.7627 35.5174 84.9602 35.8131C84.1789 36.0876 83.2497 36.2249 82.1727 36.2249Z" fill="#4051DB"/>
<path d="M100.533 36.2249C99.1391 36.2249 97.9248 35.9715 96.8901 35.4646C95.8764 34.9367 95.0317 34.187 94.3559 33.2156C93.7012 32.2441 93.2155 31.051 92.8988 29.6361C92.582 28.2212 92.4236 26.6056 92.4236 24.7895C92.4236 22.9945 92.582 21.3895 92.8988 19.9746C93.2155 18.5386 93.7012 17.3349 94.3559 16.3634C95.0317 15.392 95.8764 14.6529 96.8901 14.146C97.9248 13.6181 99.1391 13.3541 100.533 13.3541C101.927 13.3541 103.13 13.6181 104.144 14.146C105.179 14.6529 106.024 15.392 106.678 16.3634C107.354 17.3349 107.85 18.5386 108.167 19.9746C108.484 21.3895 108.642 22.9945 108.642 24.7895C108.642 26.6056 108.484 28.2212 108.167 29.6361C107.85 31.051 107.354 32.2441 106.678 33.2156C106.024 34.187 105.179 34.9367 104.144 35.4646C103.13 35.9715 101.927 36.2249 100.533 36.2249ZM100.533 33.2789C102.117 33.2789 103.236 32.6876 103.891 31.505C104.545 30.3013 104.873 28.6752 104.873 26.6268V22.9206C104.873 20.8932 104.545 19.2883 103.891 18.1057C103.236 16.9019 102.117 16.3001 100.533 16.3001C98.9491 16.3001 97.8298 16.9019 97.1752 18.1057C96.5205 19.2883 96.1932 20.8932 96.1932 22.9206V26.6584C96.1932 28.6858 96.5205 30.3013 97.1752 31.505C97.8298 32.6876 98.9491 33.2789 100.533 33.2789Z" fill="#4051DB"/>
<path d="M117.056 35.8448L110.816 13.7342H114.648L117.563 24.8845L119.495 32.392H119.685L121.617 24.8845L124.563 13.7342H128.238L121.998 35.8448H117.056Z" fill="#4051DB"/>
<path d="M131.552 35.8448V33.1522H136.747V16.4268H131.552V13.7342H145.489V16.4268H140.294V33.1522H145.489V35.8448H131.552Z" fill="#4051DB"/>
<path d="M150.609 13.7342H157.198C160.027 13.7342 162.118 14.674 163.47 16.5535C164.842 18.433 165.529 21.1783 165.529 24.7895C165.529 28.4007 164.842 31.146 163.47 33.0255C162.118 34.905 160.027 35.8448 157.198 35.8448H150.609V13.7342ZM156.976 32.9305C158.602 32.9305 159.806 32.392 160.587 31.3149C161.389 30.2168 161.791 28.6541 161.791 26.6268V22.9522C161.791 20.9249 161.389 19.3727 160.587 18.2957C159.806 17.1976 158.602 16.6485 156.976 16.6485H154.125V32.9305H156.976Z" fill="#4051DB"/>
<path d="M183.836 36.2249C181.977 36.2249 180.394 35.887 179.084 35.2112C177.796 34.5354 176.687 33.6274 175.758 32.487L178.229 30.1746C179.01 31.1249 179.866 31.8429 180.795 32.3286C181.745 32.8143 182.822 33.0572 184.026 33.0572C185.441 33.0572 186.507 32.7404 187.225 32.1069C187.943 31.4733 188.302 30.6181 188.302 29.541C188.302 28.6752 188.049 27.9889 187.542 27.482C187.035 26.9752 186.138 26.5951 184.85 26.3417L182.886 25.9932C180.732 25.592 179.116 24.8845 178.039 23.8709C176.962 22.8572 176.423 21.4634 176.423 19.6895C176.423 18.7181 176.603 17.8417 176.962 17.0603C177.342 16.2578 177.859 15.5926 178.514 15.0647C179.19 14.5156 180.003 14.0932 180.953 13.7976C181.904 13.5019 182.97 13.3541 184.153 13.3541C185.821 13.3541 187.268 13.6498 188.492 14.2411C189.717 14.8113 190.763 15.6454 191.628 16.7435L189.126 18.9609C188.556 18.2218 187.859 17.6305 187.035 17.187C186.212 16.7436 185.187 16.5218 183.963 16.5218C182.696 16.5218 181.714 16.7752 181.017 17.2821C180.32 17.7889 179.971 18.528 179.971 19.4994C179.971 20.4286 180.256 21.1255 180.827 21.5901C181.397 22.0336 182.284 22.3715 183.487 22.6038L185.451 23.0156C187.669 23.4379 189.284 24.156 190.298 25.1696C191.333 26.1833 191.85 27.5771 191.85 29.351C191.85 30.3858 191.671 31.3255 191.312 32.1702C190.953 33.0149 190.425 33.7435 189.728 34.3559C189.052 34.9472 188.218 35.4118 187.225 35.7497C186.233 36.0665 185.103 36.2249 183.836 36.2249Z" fill="#4051DB"/>
<path d="M207.963 35.8448C207.055 35.8448 206.358 35.5913 205.872 35.0845C205.386 34.5566 205.091 33.8913 204.985 33.0889H204.827C204.51 34.1236 203.929 34.905 203.085 35.433C202.24 35.9609 201.216 36.2249 200.012 36.2249C198.301 36.2249 196.981 35.7814 196.052 34.8944C195.144 34.0075 194.69 32.8143 194.69 31.3149C194.69 29.6677 195.281 28.4323 196.464 27.6087C197.668 26.7851 199.421 26.3733 201.722 26.3733H204.7V24.9796C204.7 23.9659 204.426 23.1845 203.876 22.6355C203.327 22.0864 202.472 21.8119 201.311 21.8119C200.339 21.8119 199.547 22.023 198.935 22.4454C198.322 22.8678 197.805 23.4063 197.383 24.0609L195.324 22.192C195.873 21.2628 196.644 20.5025 197.636 19.9112C198.629 19.2988 199.927 18.9926 201.532 18.9926C203.665 18.9926 205.302 19.4889 206.442 20.4814C207.583 21.474 208.153 22.8994 208.153 24.7578V33.0255H209.895V35.8448H207.963ZM200.994 33.5957C202.071 33.5957 202.958 33.3634 203.655 32.8988C204.352 32.4131 204.7 31.769 204.7 30.9665V28.5907H201.786C199.399 28.5907 198.206 29.3299 198.206 30.8081V31.3783C198.206 32.1174 198.449 32.6771 198.935 33.0572C199.442 33.4162 200.128 33.5957 200.994 33.5957Z" fill="#4051DB"/>
<path d="M214.134 22.192H211.632V19.3727H214.134V16.6485C214.134 15.3181 214.483 14.2833 215.18 13.5442C215.877 12.7839 216.922 12.4038 218.316 12.4038H221.04V15.2231H217.587V19.3727H221.04V22.192H217.587V35.8448H214.134V22.192Z" fill="#4051DB"/>
<path d="M230.383 36.2249C229.2 36.2249 228.144 36.0243 227.215 35.623C226.286 35.2218 225.494 34.6516 224.839 33.9125C224.185 33.1522 223.678 32.2441 223.319 31.1882C222.981 30.1112 222.812 28.9181 222.812 27.6087C222.812 26.2994 222.981 25.1168 223.319 24.0609C223.678 22.9839 224.185 22.0758 224.839 21.3367C225.494 20.5765 226.286 19.9957 227.215 19.5945C228.144 19.1932 229.2 18.9926 230.383 18.9926C231.586 18.9926 232.642 19.2038 233.55 19.6262C234.48 20.0485 235.25 20.6398 235.863 21.4001C236.475 22.1392 236.929 23.005 237.225 23.9976C237.542 24.9901 237.7 26.0566 237.7 27.1969V28.4957H226.391V29.0342C226.391 30.3013 226.761 31.3466 227.5 32.1702C228.26 32.9727 229.337 33.374 230.731 33.374C231.745 33.374 232.6 33.1522 233.297 32.7087C233.994 32.2653 234.585 31.6634 235.071 30.9031L237.098 32.8988C236.486 33.9125 235.599 34.7255 234.437 35.3379C233.276 35.9292 231.924 36.2249 230.383 36.2249ZM230.383 21.6852C229.791 21.6852 229.242 21.7907 228.735 22.0019C228.25 22.2131 227.827 22.5088 227.468 22.8889C227.131 23.269 226.867 23.723 226.676 24.251C226.486 24.7789 226.391 25.3597 226.391 25.9932V26.215H234.057V25.8982C234.057 24.6311 233.73 23.6174 233.075 22.8572C232.421 22.0758 231.523 21.6852 230.383 21.6852Z" fill="#4051DB"/>
<path d="M241.776 35.8448V13.7342H251.279C253.327 13.7342 254.911 14.3361 256.03 15.5398C257.15 16.7435 257.709 18.3591 257.709 20.3864C257.709 22.4137 257.15 24.0292 256.03 25.233C254.911 26.4367 253.327 27.0386 251.279 27.0386H245.355V35.8448H241.776ZM245.355 23.9025H251.057C251.965 23.9025 252.673 23.6702 253.179 23.2056C253.686 22.7199 253.94 22.0336 253.94 21.1466V19.6262C253.94 18.7392 253.686 18.0634 253.179 17.5988C252.673 17.1131 251.965 16.8703 251.057 16.8703H245.355V23.9025Z" fill="#4051DB"/>
<path d="M273.08 35.8448C272.172 35.8448 271.475 35.5913 270.989 35.0845C270.504 34.5566 270.208 33.8913 270.102 33.0889H269.944C269.627 34.1236 269.046 34.905 268.202 35.433C267.357 35.9609 266.333 36.2249 265.129 36.2249C263.419 36.2249 262.099 35.7814 261.169 34.8944C260.261 34.0075 259.807 32.8143 259.807 31.3149C259.807 29.6677 260.399 28.4323 261.581 27.6087C262.785 26.7851 264.538 26.3733 266.84 26.3733H269.817V24.9796C269.817 23.9659 269.543 23.1845 268.994 22.6355C268.445 22.0864 267.589 21.8119 266.428 21.8119C265.456 21.8119 264.664 22.023 264.052 22.4454C263.44 22.8678 262.922 23.4063 262.5 24.0609L260.441 22.192C260.99 21.2628 261.761 20.5025 262.753 19.9112C263.746 19.2988 265.045 18.9926 266.65 18.9926C268.782 18.9926 270.419 19.4889 271.559 20.4814C272.7 21.474 273.27 22.8994 273.27 24.7578V33.0255H275.012V35.8448H273.08ZM266.111 33.5957C267.188 33.5957 268.075 33.3634 268.772 32.8988C269.469 32.4131 269.817 31.769 269.817 30.9665V28.5907H266.903C264.517 28.5907 263.323 29.3299 263.323 30.8081V31.3783C263.323 32.1174 263.566 32.6771 264.052 33.0572C264.559 33.4162 265.245 33.5957 266.111 33.5957Z" fill="#4051DB"/>
<path d="M282.865 35.8448C281.661 35.8448 280.753 35.5385 280.141 34.9261C279.528 34.2926 279.222 33.4056 279.222 32.2653V22.192H276.656V19.3727H278.05C278.62 19.3727 279.011 19.246 279.222 18.9926C279.454 18.7392 279.571 18.3274 279.571 17.7572V14.8746H282.675V19.3727H286.128V22.192H282.675V33.0255H285.874V35.8448H282.865Z" fill="#4051DB"/>
<path d="M289.873 12.4038H293.326V22.097H293.484C293.843 21.21 294.382 20.4709 295.1 19.8796C295.839 19.2883 296.842 18.9926 298.109 18.9926C299.798 18.9926 301.108 19.5522 302.037 20.6715C302.987 21.7696 303.462 23.3429 303.462 25.3914V35.8448H300.01V25.8032C300.01 23.2479 298.975 21.9702 296.905 21.9702C296.462 21.9702 296.018 22.0336 295.575 22.1603C295.152 22.2659 294.772 22.4348 294.434 22.6671C294.097 22.8994 293.822 23.1951 293.611 23.5541C293.421 23.9131 293.326 24.3249 293.326 24.7895V35.8448H289.873V12.4038Z" fill="#4051DB"/>
<path d="M313.475 36.2249C311.912 36.2249 310.603 35.9503 309.547 35.4013C308.491 34.8522 307.572 34.092 306.791 33.1205L309.008 31.0932C309.621 31.8323 310.297 32.4131 311.036 32.8354C311.796 33.2367 312.672 33.4373 313.665 33.4373C314.679 33.4373 315.428 33.2472 315.914 32.8671C316.421 32.4659 316.674 31.9168 316.674 31.2199C316.674 30.692 316.495 30.2485 316.136 29.8895C315.798 29.5094 315.196 29.2665 314.33 29.1609L312.81 28.9709C311.12 28.7597 309.79 28.274 308.818 27.5137C307.868 26.7323 307.393 25.5814 307.393 24.0609C307.393 23.2584 307.541 22.551 307.836 21.9386C308.132 21.305 308.544 20.7771 309.072 20.3547C309.621 19.9112 310.265 19.5734 311.004 19.3411C311.764 19.1088 312.598 18.9926 313.506 18.9926C314.985 18.9926 316.188 19.2249 317.118 19.6895C318.068 20.1541 318.913 20.7982 319.652 21.6218L317.529 23.6491C317.107 23.1423 316.547 22.7094 315.851 22.3504C315.175 21.9702 314.393 21.7802 313.506 21.7802C312.556 21.7802 311.849 21.9702 311.384 22.3504C310.941 22.7305 310.719 23.2268 310.719 23.8392C310.719 24.4727 310.92 24.9479 311.321 25.2647C311.722 25.5814 312.366 25.8137 313.253 25.9615L314.774 26.1516C316.59 26.4261 317.91 26.9646 318.733 27.7671C319.578 28.5485 320 29.6044 320 30.9348C320 31.7373 319.842 32.4659 319.525 33.1205C319.229 33.7541 318.797 34.3031 318.226 34.7677C317.656 35.2323 316.97 35.5913 316.167 35.8448C315.365 36.0982 314.467 36.2249 313.475 36.2249Z" fill="#4051DB"/>
<path d="M36.4676 15.1664C36.0421 12.6871 35.1241 10.4311 33.8255 8.44315C32.5268 9.24726 31.3849 10.2971 30.4669 11.5479C31.2281 12.9104 31.7655 14.3846 32.0342 15.9482C32.5268 18.7626 31.9222 22.5374 30.3325 26.9377C29.4817 29.2383 28.3621 31.7177 26.9963 34.3087C26.4365 35.3808 25.8544 36.386 25.2946 37.3464C24.287 39.044 23.3242 40.5629 22.4958 41.7914C20.6149 40.4065 18.1744 38.5079 15.689 36.2966C9.35243 30.5562 5.45645 25.0391 4.69516 20.7505C4.04583 17.1097 4.87429 13.4242 7.0014 10.3864C9.12852 7.34867 12.308 5.31606 15.9577 4.69064C16.7637 4.55662 17.5922 4.46728 18.3983 4.46728C21.018 4.46728 23.5929 5.22671 25.8096 6.6339C26.7948 5.45008 27.9143 4.40027 29.1682 3.50681C26.1007 1.27317 22.3614 0 18.3983 0C17.3459 0 16.2712 0.0893455 15.174 0.290373C5.18776 2.03261 -1.48467 11.5479 0.284196 21.5323C2.61283 34.6884 23.6153 47.9785 23.6153 47.9785C23.6153 47.9785 25.4961 45.5215 27.8471 41.7914C27.9591 41.6127 28.071 41.4116 28.2054 41.233C28.295 41.0766 28.4069 40.9202 28.4965 40.7415C28.7204 40.3842 28.9443 40.0044 29.1682 39.6024C29.3473 39.312 29.5264 38.9993 29.7056 38.6866C29.7503 38.5973 29.8175 38.5079 29.8623 38.4186C29.9743 38.2399 30.0638 38.0612 30.1758 37.8825C30.2429 37.7708 30.2877 37.6591 30.3549 37.5474C30.4445 37.3688 30.534 37.2124 30.6236 37.0337C30.6684 36.9444 30.7355 36.855 30.7803 36.7433C31.0938 36.1626 31.4073 35.5818 31.6983 34.9788C31.8103 34.7777 31.8999 34.5767 32.0118 34.3533C32.1014 34.1747 32.1909 33.9736 32.2805 33.7949C32.482 33.3705 32.7059 32.9238 32.9074 32.4771C35.5048 26.8036 37.408 20.4601 36.4676 15.1664Z" fill="#4051DB"/>
<path d="M43.1624 0.290373C42.0876 0.0893455 41.0129 0 39.9381 0C36.8258 0 33.8255 0.804109 31.2057 2.2113C31.0266 2.30065 30.8699 2.38999 30.7131 2.50167C30.5564 2.59102 30.3997 2.68036 30.2653 2.76971C30.0862 2.88139 29.8847 3.01541 29.7056 3.12709C29.5712 3.21644 29.4369 3.30578 29.3025 3.39513C29.2801 3.41747 29.2578 3.41747 29.2354 3.4398C29.0786 3.55148 28.9443 3.66317 28.7875 3.77485C28.6532 3.88653 28.4965 3.99821 28.3621 4.10989C28.3397 4.13223 28.3173 4.15457 28.295 4.1769C28.1606 4.28858 28.0487 4.37793 27.9143 4.48961C27.8919 4.51195 27.8695 4.53428 27.8471 4.53428C27.7128 4.64597 27.6008 4.75765 27.4665 4.86933C27.4441 4.89167 27.4217 4.914 27.3993 4.914C27.2874 5.02568 27.153 5.13737 27.0411 5.27138L27.0187 5.29372C26.8843 5.42774 26.75 5.56176 26.6156 5.69578C26.6156 5.69578 26.6156 5.69578 26.6156 5.71811C26.5037 5.82979 26.4141 5.91914 26.3246 6.03082C26.1902 6.18718 26.0559 6.34353 25.9215 6.49988C25.8768 6.56689 25.8096 6.61157 25.7648 6.67858C25.72 6.74558 25.6528 6.81259 25.6081 6.8796C25.5633 6.94661 25.4961 7.01362 25.4513 7.08063C25.3618 7.19231 25.2946 7.28166 25.205 7.39334C25.1603 7.46035 25.0931 7.52736 25.0483 7.59437C24.9811 7.68371 24.914 7.77306 24.8468 7.88474C24.7124 8.06343 24.6005 8.24212 24.4661 8.44315C23.1899 10.4311 22.2719 12.6871 21.8464 15.1664C20.906 20.4601 22.8092 26.8036 25.4289 32.4994C26.4365 30.5562 27.2874 28.6799 27.9591 26.9153C26.347 22.5374 25.7648 18.7626 26.2574 15.9258C26.5261 14.34 27.0859 12.8658 27.8247 11.5256C29.3249 8.8452 31.6983 6.74558 34.5196 5.53942C36.1765 4.84699 38.0125 4.44494 39.9157 4.44494C40.7218 4.44494 41.5502 4.51195 42.3563 4.6683C46.006 5.31606 49.2079 7.32633 51.335 10.3641C53.4621 13.4018 54.2906 17.0873 53.6412 20.7282C52.8799 25.0391 48.9616 30.5338 42.6026 36.2519C40.1172 38.4856 37.6767 40.3842 35.7958 41.7467C34.6091 39.9598 33.1089 37.6145 31.6759 34.9564C30.8475 36.587 29.9743 38.1505 29.1458 39.5577C32.0566 44.4941 34.6987 47.9339 34.6987 47.9339C34.6987 47.9339 55.7459 34.6884 58.0746 21.5323C59.8211 11.5479 53.1486 2.03261 43.1624 0.290373Z" fill="#4051DB"/>
</svg>
