<svg width="320" height="48" viewBox="0 0 320 48" fill="none" xmlns="http://www.w3.org/2000/svg">
<path d="M80.6603 35.5582C77.9033 35.5582 75.8511 34.5839 74.5037 32.6353C73.177 30.6868 72.5137 27.9194 72.5137 24.3333C72.5137 20.7471 73.177 17.9797 74.5037 16.0312C75.8511 14.0826 77.9033 13.1084 80.6603 13.1084C81.7175 13.1084 82.6296 13.2535 83.3965 13.5437C84.1843 13.8131 84.858 14.1966 85.4177 14.6941C85.9773 15.1709 86.4438 15.741 86.8169 16.4043C87.2107 17.0469 87.532 17.7414 87.7808 18.4876L84.6403 19.5448C84.4745 19.0473 84.2879 18.5809 84.0806 18.1456C83.8733 17.7103 83.6142 17.3371 83.3033 17.0262C82.9923 16.7152 82.6192 16.4665 82.1839 16.2799C81.7693 16.0934 81.2511 16.0001 80.6292 16.0001C79.0952 16.0001 77.9758 16.5909 77.271 17.7724C76.5662 18.9333 76.2138 20.5087 76.2138 22.4987V26.1678C76.2138 28.1578 76.5662 29.7436 77.271 30.9252C77.9758 32.086 79.0952 32.6664 80.6292 32.6664C81.2511 32.6664 81.7693 32.5732 82.1839 32.3866C82.6192 32.2 82.9923 31.9513 83.3033 31.6403C83.6142 31.3294 83.8733 30.9563 84.0806 30.521C84.2879 30.0856 84.4745 29.6192 84.6403 29.1217L87.7808 30.1789C87.532 30.9252 87.2107 31.63 86.8169 32.2933C86.4438 32.9359 85.9773 33.506 85.4177 34.0035C84.858 34.4802 84.1843 34.8637 83.3965 35.154C82.6296 35.4234 81.7175 35.5582 80.6603 35.5582Z" fill="#4051DB"/>
<path d="M98.6826 35.5582C97.3145 35.5582 96.1225 35.3094 95.1068 34.8119C94.1118 34.2937 93.2826 33.5578 92.6193 32.6042C91.9767 31.6507 91.4999 30.4795 91.189 29.0906C90.878 27.7018 90.7226 26.116 90.7226 24.3333C90.7226 22.5713 90.878 20.9958 91.189 19.607C91.4999 18.1974 91.9767 17.0158 92.6193 16.0623C93.2826 15.1087 94.1118 14.3832 95.1068 13.8857C96.1225 13.3675 97.3145 13.1084 98.6826 13.1084C100.051 13.1084 101.232 13.3675 102.227 13.8857C103.243 14.3832 104.072 15.1087 104.715 16.0623C105.378 17.0158 105.865 18.1974 106.176 19.607C106.487 20.9958 106.643 22.5713 106.643 24.3333C106.643 26.116 106.487 27.7018 106.176 29.0906C105.865 30.4795 105.378 31.6507 104.715 32.6042C104.072 33.5578 103.243 34.2937 102.227 34.8119C101.232 35.3094 100.051 35.5582 98.6826 35.5582ZM98.6826 32.6664C100.237 32.6664 101.336 32.086 101.979 30.9252C102.621 29.7436 102.942 28.1475 102.942 26.1367V22.4987C102.942 20.5087 102.621 18.9333 101.979 17.7724C101.336 16.5909 100.237 16.0001 98.6826 16.0001C97.1279 16.0001 96.0293 16.5909 95.3867 17.7724C94.744 18.9333 94.4227 20.5087 94.4227 22.4987V26.1678C94.4227 28.1578 94.744 29.7436 95.3867 30.9252C96.0293 32.086 97.1279 32.6664 98.6826 32.6664Z" fill="#4051DB"/>
<path d="M114.901 35.185L108.776 13.4815H112.538L115.399 24.4265L117.296 31.7958H117.482L119.379 24.4265L122.271 13.4815H125.878L119.752 35.185H114.901Z" fill="#4051DB"/>
<path d="M129.13 35.185V32.5421H134.23V16.1245H129.13V13.4815H142.812V16.1245H137.712V32.5421H142.812V35.185H129.13Z" fill="#4051DB"/>
<path d="M147.837 13.4815H154.304C157.082 13.4815 159.134 14.4039 160.461 16.2488C161.808 18.0937 162.482 20.7886 162.482 24.3333C162.482 27.878 161.808 30.5728 160.461 32.4177C159.134 34.2626 157.082 35.185 154.304 35.185H147.837V13.4815ZM154.087 32.3244C155.683 32.3244 156.864 31.7958 157.631 30.7386C158.419 29.6607 158.813 28.1267 158.813 26.1367V22.5298C158.813 20.5398 158.419 19.0162 157.631 17.959C156.864 16.8811 155.683 16.3421 154.087 16.3421H151.288V32.3244H154.087Z" fill="#4051DB"/>
<path d="M180.452 35.5582C178.628 35.5582 177.073 35.2265 175.788 34.5632C174.524 33.8998 173.435 33.0085 172.523 31.8891L174.949 29.6192C175.716 30.5521 176.555 31.2568 177.467 31.7336C178.4 32.2104 179.457 32.4488 180.639 32.4488C182.028 32.4488 183.075 32.1378 183.779 31.516C184.484 30.8941 184.837 30.0545 184.837 28.9974C184.837 28.1475 184.588 27.4738 184.09 26.9762C183.593 26.4787 182.712 26.1056 181.447 25.8569L179.52 25.5148C177.405 25.121 175.819 24.4265 174.762 23.4315C173.705 22.4365 173.176 21.0684 173.176 19.3271C173.176 18.3736 173.353 17.5133 173.705 16.7463C174.078 15.9586 174.586 15.3057 175.229 14.7874C175.892 14.2485 176.69 13.8339 177.623 13.5437C178.556 13.2535 179.602 13.1084 180.763 13.1084C182.401 13.1084 183.821 13.3986 185.023 13.979C186.225 14.5387 187.252 15.3575 188.101 16.4354L185.645 18.612C185.085 17.8865 184.401 17.306 183.593 16.8707C182.784 16.4354 181.779 16.2177 180.577 16.2177C179.333 16.2177 178.369 16.4665 177.685 16.964C177.001 17.4615 176.659 18.187 176.659 19.1406C176.659 20.0527 176.939 20.7367 177.498 21.1928C178.058 21.6281 178.929 21.9598 180.11 22.1878L182.038 22.592C184.215 23.0066 185.801 23.7114 186.796 24.7064C187.811 25.7014 188.319 27.0695 188.319 28.8108C188.319 29.8265 188.143 30.749 187.791 31.5781C187.438 32.4073 186.92 33.1225 186.236 33.7236C185.572 34.3041 184.754 34.7601 183.779 35.0918C182.805 35.4027 181.696 35.5582 180.452 35.5582Z" fill="#4051DB"/>
<path d="M204.135 35.185C203.244 35.185 202.56 34.9363 202.083 34.4388C201.606 33.9206 201.316 33.2676 201.212 32.4799H201.057C200.746 33.4956 200.176 34.2626 199.347 34.7808C198.518 35.2991 197.512 35.5582 196.331 35.5582C194.652 35.5582 193.356 35.1229 192.444 34.2522C191.553 33.3816 191.107 32.2104 191.107 30.7386C191.107 29.1217 191.687 27.9091 192.848 27.1006C194.03 26.2922 195.75 25.888 198.01 25.888H200.933V24.5198C200.933 23.5248 200.663 22.7578 200.124 22.2189C199.585 21.6799 198.746 21.4104 197.606 21.4104C196.652 21.4104 195.875 21.6177 195.273 22.0323C194.672 22.4469 194.164 22.9755 193.75 23.6181L191.729 21.7836C192.268 20.8715 193.024 20.1252 193.999 19.5448C194.973 18.9436 196.248 18.6431 197.823 18.6431C199.917 18.6431 201.523 19.1302 202.643 20.1045C203.762 21.0788 204.322 22.478 204.322 24.3022V32.4177H206.032V35.185H204.135ZM197.295 32.9774C198.352 32.9774 199.222 32.7494 199.906 32.2933C200.591 31.8165 200.933 31.1843 200.933 30.3966V28.0645H198.072C195.73 28.0645 194.558 28.7901 194.558 30.2411V30.8008C194.558 31.5263 194.797 32.0757 195.273 32.4488C195.771 32.8012 196.445 32.9774 197.295 32.9774Z" fill="#4051DB"/>
<path d="M210.193 21.7836H207.737V19.0162H210.193V16.3421C210.193 15.0362 210.535 14.0204 211.219 13.2949C211.903 12.5487 212.929 12.1755 214.298 12.1755H216.972V14.9429H213.582V19.0162H216.972V21.7836H213.582V35.185H210.193V21.7836Z" fill="#4051DB"/>
<path d="M226.142 35.5582C224.982 35.5582 223.945 35.3612 223.033 34.9674C222.121 34.5735 221.344 34.0138 220.701 33.2883C220.058 32.5421 219.561 31.6507 219.209 30.6142C218.877 29.557 218.711 28.3858 218.711 27.1006C218.711 25.8154 218.877 24.6546 219.209 23.6181C219.561 22.5609 220.058 21.6695 220.701 20.944C221.344 20.1978 222.121 19.6277 223.033 19.2339C223.945 18.84 224.982 18.6431 226.142 18.6431C227.324 18.6431 228.36 18.8504 229.252 19.265C230.164 19.6795 230.921 20.26 231.522 21.0062C232.123 21.7317 232.569 22.5816 232.859 23.5559C233.17 24.5302 233.325 25.577 233.325 26.6964V27.9713H222.225V28.4999C222.225 29.7436 222.587 30.7697 223.313 31.5781C224.059 32.3659 225.116 32.7597 226.484 32.7597C227.479 32.7597 228.319 32.5421 229.003 32.1067C229.687 31.6714 230.268 31.0806 230.744 30.3344L232.734 32.2933C232.133 33.2883 231.263 34.0864 230.122 34.6875C228.982 35.268 227.656 35.5582 226.142 35.5582ZM226.142 21.2861C225.562 21.2861 225.023 21.3897 224.526 21.597C224.049 21.8043 223.634 22.0945 223.282 22.4676C222.95 22.8408 222.691 23.2864 222.504 23.8047C222.318 24.3229 222.225 24.893 222.225 25.5148V25.7325H229.749V25.4216C229.749 24.1778 229.428 23.1828 228.785 22.4365C228.143 21.6695 227.262 21.2861 226.142 21.2861Z" fill="#4051DB"/>
<path d="M243.215 35.185V13.4815H252.544C254.554 13.4815 256.109 14.0723 257.208 15.2538C258.306 16.4354 258.856 18.0212 258.856 20.0112C258.856 22.0012 258.306 23.587 257.208 24.7686C256.109 25.9501 254.554 26.5409 252.544 26.5409H246.729V35.185H243.215ZM246.729 23.4626H252.326C253.217 23.4626 253.912 23.2346 254.409 22.7786C254.907 22.3018 255.155 21.6281 255.155 20.7575V19.265C255.155 18.3943 254.907 17.731 254.409 17.2749C253.912 16.7982 253.217 16.5598 252.326 16.5598H246.729V23.4626Z" fill="#4051DB"/>
<path d="M273.943 35.185C273.052 35.185 272.368 34.9363 271.891 34.4388C271.414 33.9206 271.124 33.2676 271.021 32.4799H270.865C270.554 33.4956 269.984 34.2626 269.155 34.7808C268.326 35.2991 267.32 35.5582 266.139 35.5582C264.46 35.5582 263.164 35.1229 262.252 34.2522C261.361 33.3816 260.915 32.2104 260.915 30.7386C260.915 29.1217 261.496 27.9091 262.656 27.1006C263.838 26.2922 265.558 25.888 267.818 25.888H270.741V24.5198C270.741 23.5248 270.471 22.7578 269.932 22.2189C269.393 21.6799 268.554 21.4104 267.414 21.4104C266.46 21.4104 265.683 21.6177 265.082 22.0323C264.481 22.4469 263.973 22.9755 263.558 23.6181L261.537 21.7836C262.076 20.8715 262.833 20.1252 263.807 19.5448C264.781 18.9436 266.056 18.6431 267.631 18.6431C269.725 18.6431 271.332 19.1302 272.451 20.1045C273.57 21.0788 274.13 22.478 274.13 24.3022V32.4177H275.84V35.185H273.943ZM267.103 32.9774C268.16 32.9774 269.031 32.7494 269.715 32.2933C270.399 31.8165 270.741 31.1843 270.741 30.3966V28.0645H267.88C265.538 28.0645 264.367 28.7901 264.367 30.2411V30.8008C264.367 31.5263 264.605 32.0757 265.082 32.4488C265.579 32.8012 266.253 32.9774 267.103 32.9774Z" fill="#4051DB"/>
<path d="M283.548 35.185C282.367 35.185 281.475 34.8845 280.874 34.2833C280.273 33.6614 279.973 32.7908 279.973 31.6714V21.7836H277.454V19.0162H278.822C279.382 19.0162 279.765 18.8918 279.973 18.6431C280.201 18.3943 280.315 17.9901 280.315 17.4304V14.6009H283.362V19.0162H286.751V21.7836H283.362V32.4177H286.502V35.185H283.548Z" fill="#4051DB"/>
<path d="M290.427 12.1755H293.817V21.6903H293.972C294.325 20.8196 294.853 20.0941 295.558 19.5137C296.283 18.9333 297.268 18.6431 298.512 18.6431C300.17 18.6431 301.455 19.1924 302.367 20.2911C303.3 21.369 303.767 22.9133 303.767 24.924V35.185H300.377V25.3283C300.377 22.82 299.362 21.5659 297.33 21.5659C296.895 21.5659 296.46 21.6281 296.024 21.7525C295.61 21.8561 295.237 22.0219 294.905 22.25C294.573 22.478 294.304 22.7682 294.096 23.1206C293.91 23.473 293.817 23.8772 293.817 24.3333V35.185H290.427V12.1755Z" fill="#4051DB"/>
<path d="M313.595 35.5582C312.061 35.5582 310.776 35.2887 309.739 34.7497C308.703 34.2108 307.801 33.4645 307.034 32.511L309.211 30.521C309.812 31.2465 310.475 31.8165 311.201 32.2311C311.947 32.625 312.807 32.8219 313.781 32.8219C314.776 32.8219 315.512 32.6353 315.989 32.2622C316.487 31.8684 316.735 31.3294 316.735 30.6453C316.735 30.1271 316.559 29.6918 316.207 29.3394C315.875 28.9663 315.284 28.7279 314.434 28.6242L312.942 28.4377C311.283 28.2304 309.978 27.7536 309.024 27.0073C308.091 26.2404 307.625 25.1106 307.625 23.6181C307.625 22.8304 307.77 22.136 308.06 21.5348C308.35 20.9129 308.754 20.3947 309.273 19.9801C309.812 19.5448 310.444 19.2131 311.169 18.9851C311.916 18.7571 312.735 18.6431 313.626 18.6431C315.077 18.6431 316.259 18.8711 317.171 19.3271C318.103 19.7832 318.933 20.4154 319.658 21.2239L317.575 23.2139C317.16 22.7164 316.611 22.2914 315.927 21.939C315.263 21.5659 314.497 21.3793 313.626 21.3793C312.693 21.3793 311.999 21.5659 311.543 21.939C311.107 22.3122 310.89 22.7993 310.89 23.4004C310.89 24.0223 311.087 24.4887 311.48 24.7997C311.874 25.1106 312.507 25.3386 313.377 25.4837L314.87 25.6703C316.652 25.9398 317.948 26.4684 318.756 27.2561C319.586 28.0231 320 29.0595 320 30.3655C320 31.1532 319.845 31.8684 319.534 32.511C319.244 33.1328 318.819 33.6718 318.259 34.1279C317.699 34.5839 317.025 34.9363 316.238 35.185C315.45 35.4338 314.569 35.5582 313.595 35.5582Z" fill="#4051DB"/>
<path d="M35.7964 14.8873C35.3788 12.4536 34.4776 10.2391 33.2029 8.28775C31.9281 9.07706 30.8072 10.1075 29.9061 11.3354C30.6534 12.6728 31.1809 14.1199 31.4446 15.6546C31.9281 18.4172 31.3347 22.1226 29.7742 26.4419C28.939 28.7002 27.8401 31.1339 26.4994 33.6772C25.95 34.7296 25.3785 35.7163 24.829 36.659C23.84 38.3254 22.8949 39.8163 22.0817 41.0222C20.2355 39.6628 17.8399 37.7992 15.4002 35.6286C9.18029 29.9938 5.35602 24.5782 4.60875 20.3686C3.97137 16.7948 4.78458 13.1771 6.87254 10.1953C8.96051 7.21341 12.0815 5.21821 15.664 4.60431C16.4552 4.47275 17.2684 4.38505 18.0596 4.38505C20.6311 4.38505 23.1587 5.13051 25.3346 6.51181C26.3016 5.34977 27.4005 4.31928 28.6313 3.44227C25.6203 1.24974 21.9499 0 18.0596 0C17.0266 0 15.9717 0.0877011 14.8947 0.285028C5.09228 1.9952 -1.45734 11.3354 0.278966 21.136C2.56474 34.0499 23.1807 47.0955 23.1807 47.0955C23.1807 47.0955 25.0269 44.6837 27.3346 41.0222C27.4445 40.8468 27.5544 40.6495 27.6863 40.474C27.7742 40.3206 27.8841 40.1671 27.972 39.9917C28.1918 39.6409 28.4116 39.2682 28.6313 38.8735C28.8072 38.5885 28.983 38.2815 29.1588 37.9746C29.2028 37.8869 29.2687 37.7992 29.3127 37.7115C29.4226 37.5361 29.5105 37.3607 29.6204 37.1853C29.6863 37.0756 29.7303 36.966 29.7962 36.8564C29.8841 36.681 29.972 36.5275 30.0599 36.3521C30.1039 36.2644 30.1698 36.1767 30.2138 36.0671C30.5215 35.497 30.8292 34.927 31.1149 34.335C31.2248 34.1376 31.3127 33.9403 31.4226 33.7211C31.5105 33.5457 31.5984 33.3483 31.6864 33.1729C31.8842 32.7564 32.104 32.3178 32.3018 31.8793C34.8513 26.3103 36.7195 20.0835 35.7964 14.8873Z" fill="#4051DB"/>
<path d="M42.3679 0.285028C41.3129 0.0877011 40.2579 0 39.2029 0C36.1479 0 33.2028 0.78931 30.6313 2.1706C30.4555 2.2583 30.3016 2.346 30.1478 2.45563C29.9939 2.54333 29.8401 2.63103 29.7082 2.71873C29.5324 2.82836 29.3345 2.95991 29.1587 3.06954C29.0268 3.15724 28.895 3.24494 28.7631 3.33264C28.7411 3.35457 28.7191 3.35457 28.6972 3.37649C28.5433 3.48612 28.4114 3.59574 28.2576 3.70537C28.1257 3.815 27.9719 3.92462 27.84 4.03425C27.818 4.05617 27.796 4.0781 27.7741 4.10003C27.6422 4.20965 27.5323 4.29735 27.4004 4.40698C27.3785 4.4289 27.3565 4.45083 27.3345 4.45083C27.2026 4.56046 27.0927 4.67008 26.9609 4.77971C26.9389 4.80163 26.9169 4.82356 26.8949 4.82356C26.785 4.93319 26.6532 5.04281 26.5433 5.17436L26.5213 5.19629C26.3894 5.32784 26.2575 5.45939 26.1257 5.59094C26.1257 5.59094 26.1257 5.59094 26.1257 5.61287C26.0158 5.7225 25.9279 5.8102 25.84 5.91982C25.7081 6.0733 25.5762 6.22678 25.4443 6.38025C25.4004 6.44603 25.3344 6.48988 25.2905 6.55566C25.2465 6.62143 25.1806 6.68721 25.1366 6.75298C25.0927 6.81876 25.0267 6.88453 24.9828 6.95031C24.8949 7.05994 24.8289 7.14764 24.741 7.25726C24.6971 7.32304 24.6311 7.38882 24.5872 7.45459C24.5212 7.54229 24.4553 7.62999 24.3894 7.73962C24.2575 7.91502 24.1476 8.09042 24.0157 8.28775C22.763 10.2391 21.8618 12.4536 21.4442 14.8873C20.5211 20.0835 22.3893 26.3103 24.9608 31.9013C25.9498 29.9938 26.785 28.152 27.4444 26.4199C25.8619 22.1226 25.2905 18.4172 25.774 15.6327C26.0378 14.076 26.5872 12.629 27.3125 11.3134C28.7851 8.68241 31.1148 6.62143 33.8841 5.43747C35.5105 4.75778 37.3128 4.36313 39.181 4.36313C39.9722 4.36313 40.7854 4.4289 41.5766 4.58238C45.1591 5.21821 48.3021 7.19149 50.39 10.1733C52.478 13.1552 53.2912 16.7728 52.6538 20.3467C51.9066 24.5782 48.0603 29.9718 41.8184 35.5847C39.3788 37.7772 36.9831 39.6409 35.1369 40.9783C33.972 39.2243 32.4995 36.9222 31.0928 34.313C30.2796 35.9136 29.4225 37.4484 28.6093 38.8297C31.4665 43.6751 34.0599 47.0516 34.0599 47.0516C34.0599 47.0516 54.7198 34.0499 57.0056 21.136C58.7199 11.3354 52.1703 1.9952 42.3679 0.285028Z" fill="#4051DB"/>
</svg>
