<svg width="235" height="56" viewBox="0 0 235 56" fill="none" xmlns="http://www.w3.org/2000/svg">
<path d="M49.947 14.3733C49.8863 12.8889 49.8863 11.4616 49.8863 10.0913C49.8863 9.00652 48.975 8.15012 47.8208 8.15012C38.8904 8.09302 32.0864 5.69509 26.4366 0.556663C25.6468 -0.185554 24.3103 -0.185554 23.5205 0.556663C17.8707 5.69509 11.0667 8.09302 2.19709 8.09302C1.04283 8.09302 0.131569 8.94943 0.131569 10.0342C0.131569 11.4045 0.131569 12.8318 0.0708185 14.3733C-0.232934 28.4755 -0.658186 47.716 24.3103 55.8233C24.5533 55.8804 24.7356 55.9375 24.9786 55.9375C25.2216 55.9375 25.4646 55.8804 25.6468 55.8233C50.6153 47.716 50.19 28.4755 49.947 14.3733Z" fill="#6979F8"/>
<path d="M46.466 16.2979C46.4137 15.0235 46.4137 13.7982 46.4137 12.622C46.4137 11.6907 45.6296 10.9556 44.6364 10.9556C36.9521 10.9065 31.0975 8.84804 26.236 4.43697C25.5565 3.79982 24.4064 3.79982 23.7269 4.43697C18.8654 8.84804 13.0108 10.9065 5.3788 10.9065C4.3856 10.9065 3.60149 11.6417 3.60149 12.5729C3.60149 13.7492 3.60149 14.9745 3.54922 16.2979C3.28785 28.4038 2.92193 44.9208 24.4064 51.8805C24.6155 51.9295 24.7724 51.9785 24.9815 51.9785C25.1905 51.9785 25.3996 51.9295 25.5565 51.8805C47.041 44.9208 46.675 28.4038 46.466 16.2979ZM24.9815 48.4987C6.58109 42.2251 6.84246 28.5018 7.10383 16.3959C7.10383 15.6607 7.15611 14.9745 7.15611 14.2884C14.3176 13.9453 20.0677 11.9358 24.9815 7.91682C29.8952 11.9358 35.6453 13.9943 42.8068 14.2394C42.8068 14.9255 42.8068 15.6117 42.8591 16.3469C43.1204 28.5018 43.3818 42.2251 24.9815 48.4987Z" fill="white"/>
<path d="M25.0006 15.7084C20.2317 15.7084 15.2461 19.3332 15.2461 25.3034C15.2461 30.9538 23.9168 39.5893 24.2419 39.9091C24.4587 40.1224 24.6755 40.229 25.0006 40.229C25.3258 40.229 25.5425 40.1224 25.7593 39.9091C26.0844 39.5893 34.7551 30.9538 34.7551 25.3034C34.7551 19.3332 29.7695 15.7084 25.0006 15.7084ZM25.0006 28.5018C23.1581 28.5018 21.7491 27.1158 21.7491 25.3034C21.7491 23.491 23.1581 22.1051 25.0006 22.1051C26.8431 22.1051 28.2521 23.491 28.2521 25.3034C28.2521 27.1158 26.8431 28.5018 25.0006 28.5018Z" fill="white"/>
<path d="M84.3317 22.9567H88.642C88.5575 18.7791 84.9957 15.821 79.7315 15.821C74.5398 15.821 70.6399 18.7429 70.652 23.1136C70.652 26.6634 73.1754 28.7038 77.2443 29.7543L80.0575 30.4787C82.7259 31.1548 84.4886 31.9879 84.5007 33.9077C84.4886 36.0206 82.4844 37.4332 79.5625 37.4332C76.7614 37.4332 74.5881 36.1776 74.407 33.5817H70C70.1811 38.4957 73.8395 41.2607 79.5987 41.2607C85.527 41.2607 88.968 38.3026 88.9801 33.9439C88.968 29.6577 85.4304 27.7017 81.7116 26.8203L79.3935 26.2408C77.3651 25.7578 75.1676 24.9006 75.1918 22.8359C75.2038 20.9766 76.87 19.6122 79.6712 19.6122C82.3395 19.6122 84.1023 20.8558 84.3317 22.9567Z" fill="#3C475B"/>
<path d="M97.117 41.2607C100.027 41.2607 101.765 39.8963 102.562 38.3388H102.707V40.8864H106.909V28.4744C106.909 23.5724 102.912 22.0994 99.3748 22.0994C95.475 22.0994 92.4806 23.8381 91.5147 27.2188L95.5957 27.7983C96.0304 26.5305 97.2619 25.4439 99.399 25.4439C101.427 25.4439 102.538 26.4822 102.538 28.3054V28.3778C102.538 29.6335 101.222 29.6939 97.9501 30.044C94.3521 30.4304 90.911 31.505 90.911 35.6825C90.911 39.3288 93.5794 41.2607 97.117 41.2607ZM98.252 38.049C96.4288 38.049 95.1248 37.2159 95.1248 35.6101C95.1248 33.9318 96.5858 33.2315 98.5417 32.9538C99.6887 32.7969 101.983 32.5071 102.55 32.0483V34.2337C102.55 36.2983 100.884 38.049 98.252 38.049Z" fill="#3C475B"/>
<path d="M119.697 22.3409H115.846V20.88C115.846 19.4311 116.449 18.6222 118.079 18.6222C118.768 18.6222 119.347 18.7791 119.709 18.8878L120.591 15.5071C120.023 15.3139 118.78 15 117.27 15C114.047 15 111.475 16.8473 111.475 20.5902V22.3409H108.734V25.7216H111.475V40.8864H115.846V25.7216H119.697V22.3409Z" fill="#3C475B"/>
<path d="M129.633 41.2486C133.956 41.2486 136.926 39.1357 137.699 35.9119L133.618 35.4531C133.026 37.0227 131.577 37.8438 129.694 37.8438C126.868 37.8438 124.997 35.9844 124.961 32.809H137.88V31.4688C137.88 24.9609 133.968 22.0994 129.404 22.0994C124.091 22.0994 120.626 25.9993 120.626 31.7223C120.626 37.5419 124.043 41.2486 129.633 41.2486ZM124.973 29.8629C125.105 27.4965 126.856 25.5043 129.464 25.5043C131.975 25.5043 133.666 27.3395 133.69 29.8629H124.973Z" fill="#3C475B"/>
<path d="M148.204 40.8864H152.683V32.5313H157.416C163.127 32.5313 166.194 29.1023 166.194 24.3452C166.194 19.6243 163.164 16.1591 157.477 16.1591H148.204V40.8864ZM152.683 28.8487V19.902H156.789C160.145 19.902 161.63 21.7131 161.63 24.3452C161.63 26.9773 160.145 28.8487 156.813 28.8487H152.683Z" fill="#3C475B"/>
<path d="M173.896 41.2607C176.806 41.2607 178.545 39.8963 179.342 38.3388H179.487V40.8864H183.688V28.4744C183.688 23.5724 179.692 22.0994 176.154 22.0994C172.254 22.0994 169.26 23.8381 168.294 27.2188L172.375 27.7983C172.81 26.5305 174.041 25.4439 176.178 25.4439C178.207 25.4439 179.317 26.4822 179.317 28.3054V28.3778C179.317 29.6335 178.001 29.6939 174.729 30.044C171.131 30.4304 167.69 31.505 167.69 35.6825C167.69 39.3288 170.359 41.2607 173.896 41.2607ZM175.031 38.049C173.208 38.049 171.904 37.2159 171.904 35.6101C171.904 33.9318 173.365 33.2315 175.321 32.9538C176.468 32.7969 178.762 32.5071 179.33 32.0483V34.2337C179.33 36.2983 177.663 38.049 175.031 38.049Z" fill="#3C475B"/>
<path d="M196.344 22.3409H192.685V17.8977H188.315V22.3409H185.683V25.7216H188.315V36.0327C188.29 39.522 190.826 41.2365 194.11 41.1399C195.354 41.1037 196.211 40.8622 196.682 40.7053L195.945 37.2884C195.704 37.3487 195.209 37.4574 194.665 37.4574C193.567 37.4574 192.685 37.071 192.685 35.3082V25.7216H196.344V22.3409Z" fill="#3C475B"/>
<path d="M203.768 30.0199C203.768 27.3395 205.434 25.794 207.777 25.794C210.071 25.794 211.423 27.255 211.423 29.7543V40.8864H215.794V29.0781C215.794 24.5987 213.258 22.0994 209.407 22.0994C206.557 22.0994 204.746 23.3913 203.889 25.4922H203.672V16.1591H199.398V40.8864H203.768V30.0199Z" fill="#3C475B"/>
<path d="M233.907 27.2429C233.303 24.1037 230.792 22.0994 226.445 22.0994C221.978 22.0994 218.935 24.2969 218.947 27.7259C218.935 30.4304 220.601 32.2173 224.163 32.9538L227.327 33.6179C229.029 33.9922 229.826 34.6804 229.826 35.7308C229.826 36.9986 228.449 37.9524 226.373 37.9524C224.368 37.9524 223.064 37.0831 222.69 35.4169L218.428 35.8274C218.971 39.2322 221.833 41.2486 226.385 41.2486C231.021 41.2486 234.293 38.8459 234.305 35.3324C234.293 32.6882 232.591 31.0703 229.089 30.3097L225.926 29.6335C224.042 29.2109 223.294 28.559 223.306 27.4844C223.294 26.2287 224.682 25.3594 226.506 25.3594C228.522 25.3594 229.584 26.4581 229.922 27.6776L233.907 27.2429Z" fill="#3C475B"/>
</svg>
