<svg width="390" height="70" viewBox="0 0 390 70" fill="none" xmlns="http://www.w3.org/2000/svg">
<circle cx="35" cy="35" r="35" fill="url(#paint0_logo_linear)"/>
<path d="M104.16 49.4559C109.29 49.4559 111.646 46.4919 112.862 42.8819L109.024 41.5899C108.226 44.0219 107.124 45.9219 104.122 45.9219C100.36 45.9219 98.7261 42.8439 98.7261 37.9799V33.4959C98.7261 28.6319 100.36 25.5539 104.122 25.5539C107.124 25.5539 108.226 27.4539 109.024 29.8859L112.862 28.5939C111.646 24.9839 109.29 22.0199 104.16 22.0199C97.4341 22.0199 94.2041 26.9599 94.2041 35.7379C94.2041 44.5159 97.4341 49.4559 104.16 49.4559Z" fill="#4051DB"/>
<path d="M126.185 49.4559C132.911 49.4559 135.913 44.4019 135.913 35.7379C135.913 27.0739 132.911 22.0199 126.185 22.0199C119.459 22.0199 116.457 27.0739 116.457 35.7379C116.457 44.4019 119.459 49.4559 126.185 49.4559ZM126.185 45.9219C122.385 45.9219 120.979 42.8439 120.979 37.9799V33.4959C120.979 28.6319 122.385 25.5539 126.185 25.5539C129.985 25.5539 131.391 28.6319 131.391 33.4959V37.9419C131.391 42.8439 129.985 45.9219 126.185 45.9219Z" fill="#4051DB"/>
<path d="M151.934 48.9999L159.42 22.4759H155.012L151.478 35.8519L149.16 44.8579H148.932L146.614 35.8519L143.118 22.4759H138.52L146.006 48.9999H151.934Z" fill="#4051DB"/>
<path d="M180.116 48.9999V45.7699H173.884V25.7059H180.116V22.4759H163.396V25.7059H169.628V45.7699H163.396V48.9999H180.116Z" fill="#4051DB"/>
<path d="M186.257 48.9999H194.161C200.887 48.9999 204.155 44.3639 204.155 35.7379C204.155 27.1119 200.887 22.4759 194.161 22.4759H186.257V48.9999ZM190.475 45.5039V25.9719H193.895C197.771 25.9719 199.671 28.7079 199.671 33.5339V37.9419C199.671 42.7679 197.771 45.5039 193.895 45.5039H190.475Z" fill="#4051DB"/>
<path d="M226.116 49.4559C232.196 49.4559 235.73 46.1499 235.73 41.2099C235.73 36.9919 233.336 34.6359 228.054 33.6099L225.698 33.1159C222.848 32.5459 221.48 31.5959 221.48 29.3919C221.48 27.0739 223.228 25.8199 226.268 25.8199C229.194 25.8199 231.094 26.9599 232.462 28.7459L235.464 26.0859C233.412 23.4639 230.486 22.0199 226.496 22.0199C220.872 22.0199 217.224 24.9079 217.224 29.6199C217.224 33.8379 219.846 36.2319 224.976 37.1819L227.332 37.5999C230.41 38.2079 231.474 39.3859 231.474 41.4379C231.474 43.9839 229.726 45.6559 226.344 45.6559C223.456 45.6559 221.252 44.4779 219.39 42.1979L216.426 44.9719C218.63 47.7079 221.67 49.4559 226.116 49.4559Z" fill="#4051DB"/>
<path d="M257.377 48.9999V45.6179H255.287V35.6999C255.287 31.2919 252.437 28.7839 247.345 28.7839C243.507 28.7839 241.189 30.4179 239.897 32.6219L242.367 34.8639C243.355 33.3059 244.761 32.1659 247.079 32.1659C249.853 32.1659 251.145 33.5719 251.145 35.9659V37.6379H247.573C242.063 37.6379 239.137 39.6519 239.137 43.5659C239.137 47.1379 241.455 49.4559 245.521 49.4559C248.409 49.4559 250.537 48.1639 251.297 45.6939H251.487C251.753 47.6319 252.893 48.9999 255.059 48.9999H257.377ZM246.699 46.3019C244.647 46.3019 243.355 45.3899 243.355 43.6419V42.9579C243.355 41.2479 244.761 40.2979 247.649 40.2979H251.145V43.1479C251.145 45.0859 249.245 46.3019 246.699 46.3019Z" fill="#4051DB"/>
<path d="M262.463 48.9999H266.605V32.6219H270.747V29.2399H266.605V24.2619H270.747V20.8799H267.479C264.173 20.8799 262.463 22.7799 262.463 25.9719V29.2399H259.461V32.6219H262.463V48.9999Z" fill="#4051DB"/>
<path d="M281.954 49.4559C285.64 49.4559 288.528 47.8599 290.01 45.4659L287.578 43.0719C286.438 44.8959 284.804 46.0359 282.372 46.0359C279.028 46.0359 277.166 43.8699 277.166 40.8299V40.1839H290.732V38.6259C290.732 33.1539 287.768 28.7839 281.954 28.7839C276.33 28.7839 272.872 32.8119 272.872 39.1199C272.872 45.4279 276.33 49.4559 281.954 49.4559ZM281.954 32.0139C284.69 32.0139 286.362 34.0279 286.362 37.0679V37.4479H277.166V37.1819C277.166 34.1419 279.104 32.0139 281.954 32.0139Z" fill="#4051DB"/>
<path d="M299.916 48.9999V38.4359H307.022C311.886 38.4359 314.736 35.2819 314.736 30.4559C314.736 25.6299 311.886 22.4759 307.022 22.4759H295.622V48.9999H299.916ZM299.916 26.2379H306.756C308.922 26.2379 310.214 27.4159 310.214 29.5439V31.3679C310.214 33.4959 308.922 34.6739 306.756 34.6739H299.916V26.2379Z" fill="#4051DB"/>
<path d="M335.493 48.9999V45.6179H333.403V35.6999C333.403 31.2919 330.553 28.7839 325.461 28.7839C321.623 28.7839 319.305 30.4179 318.013 32.6219L320.483 34.8639C321.471 33.3059 322.877 32.1659 325.195 32.1659C327.969 32.1659 329.261 33.5719 329.261 35.9659V37.6379H325.689C320.179 37.6379 317.253 39.6519 317.253 43.5659C317.253 47.1379 319.571 49.4559 323.637 49.4559C326.525 49.4559 328.653 48.1639 329.413 45.6939H329.603C329.869 47.6319 331.009 48.9999 333.175 48.9999H335.493ZM324.815 46.3019C322.763 46.3019 321.471 45.3899 321.471 43.6419V42.9579C321.471 41.2479 322.877 40.2979 325.765 40.2979H329.261V43.1479C329.261 45.0859 327.361 46.3019 324.815 46.3019Z" fill="#4051DB"/>
<path d="M348.523 48.9999V45.6179H344.685V32.6219H348.827V29.2399H344.685V23.8439H340.961V27.3019C340.961 28.6699 340.505 29.2399 339.137 29.2399H337.465V32.6219H340.543V44.7059C340.543 47.4039 342.063 48.9999 344.913 48.9999H348.523Z" fill="#4051DB"/>
<path d="M353.32 48.9999H357.462V35.7379C357.462 33.4579 359.59 32.3559 361.756 32.3559C364.302 32.3559 365.48 33.9139 365.48 36.9539V48.9999H369.622V36.4599C369.622 31.5959 367.228 28.7839 363.2 28.7839C360.16 28.7839 358.488 30.3799 357.652 32.5079H357.462V20.8799H353.32V48.9999Z" fill="#4051DB"/>
<path d="M381.633 49.4559C386.383 49.4559 389.461 46.9099 389.461 43.1099C389.461 39.9179 387.523 38.0179 383.191 37.3719L381.367 37.1439C379.277 36.8019 378.327 36.1179 378.327 34.5979C378.327 33.1159 379.391 32.1279 381.671 32.1279C383.799 32.1279 385.471 33.1539 386.497 34.3699L389.043 31.9379C387.257 29.9619 385.243 28.7839 381.671 28.7839C377.339 28.7839 374.337 31.0259 374.337 34.8639C374.337 38.5119 376.807 40.2599 380.835 40.7539L382.659 40.9819C384.711 41.2479 385.471 42.1979 385.471 43.4519C385.471 45.1239 384.255 46.1119 381.861 46.1119C379.505 46.1119 377.719 45.0479 376.275 43.2999L373.615 45.7319C375.477 48.0499 377.909 49.4559 381.633 49.4559Z" fill="#4051DB"/>
<path d="M40.3729 29.0121C40.0302 27.0484 39.2908 25.2616 38.2448 23.6872C37.1988 24.324 36.279 25.1555 35.5396 26.1462C36.1528 27.2253 36.5856 28.3929 36.802 29.6313C37.1988 31.8603 36.7119 34.8501 35.4314 38.3352C34.7461 40.1574 33.8444 42.121 32.7442 44.1732C32.2934 45.0223 31.8245 45.8184 31.3736 46.5791C30.562 47.9236 29.7866 49.1266 29.1193 50.0996C27.6044 49.0028 25.6386 47.4991 23.6367 45.7477C18.5329 41.2011 15.3949 36.8315 14.7817 33.4348C14.2587 30.5512 14.926 27.6322 16.6393 25.2263C18.3526 22.8203 20.9135 21.2104 23.8532 20.7151C24.5024 20.6089 25.1697 20.5382 25.8189 20.5382C27.929 20.5382 30.003 21.1397 31.7884 22.2542C32.5819 21.3166 33.4837 20.4851 34.4936 19.7775C32.0229 18.0084 29.0111 17 25.8189 17C24.9713 17 24.1056 17.0708 23.2219 17.23C15.1785 18.6099 9.80417 26.1462 11.2289 34.054C13.1045 44.4739 30.021 55 30.021 55C30.021 55 31.5359 53.054 33.4296 50.0996C33.5197 49.9581 33.6099 49.7989 33.7181 49.6574C33.7902 49.5335 33.8804 49.4097 33.9526 49.2682C34.1329 48.9851 34.3133 48.6844 34.4936 48.3659C34.6379 48.1359 34.7822 47.8883 34.9264 47.6406C34.9625 47.5698 35.0166 47.4991 35.0527 47.4283C35.1428 47.2868 35.215 47.1453 35.3052 47.0037C35.3593 46.9153 35.3953 46.8268 35.4494 46.7384C35.5216 46.5968 35.5937 46.473 35.6659 46.3315C35.7019 46.2607 35.756 46.1899 35.7921 46.1015C36.0446 45.6415 36.2971 45.1816 36.5315 44.7039C36.6217 44.5447 36.6938 44.3855 36.784 44.2086C36.8561 44.067 36.9283 43.9078 37.0004 43.7663C37.1627 43.4302 37.3431 43.0763 37.5054 42.7225C39.5974 38.229 41.1303 33.2048 40.3729 29.0121Z" fill="white"/>
<path d="M45.7653 17.23C44.8997 17.0708 44.034 17 43.1683 17C40.6615 17 38.2449 17.6369 36.1348 18.7514C35.9905 18.8222 35.8643 18.8929 35.7381 18.9814C35.6118 19.0521 35.4856 19.1229 35.3774 19.1937C35.2331 19.2821 35.0708 19.3883 34.9265 19.4767C34.8183 19.5475 34.7101 19.6182 34.6019 19.689C34.5838 19.7067 34.5658 19.7067 34.5478 19.7244C34.4215 19.8128 34.3133 19.9013 34.1871 19.9898C34.0789 20.0782 33.9526 20.1667 33.8444 20.2551C33.8264 20.2728 33.8084 20.2905 33.7903 20.3082C33.6821 20.3966 33.5919 20.4674 33.4837 20.5559C33.4657 20.5736 33.4477 20.5912 33.4296 20.5912C33.3214 20.6797 33.2312 20.7682 33.123 20.8566C33.105 20.8743 33.087 20.892 33.0689 20.892C32.9788 20.9804 32.8706 21.0689 32.7804 21.175L32.7623 21.1927C32.6541 21.2989 32.5459 21.405 32.4377 21.5112C32.4377 21.5112 32.4377 21.5112 32.4377 21.5289C32.3476 21.6173 32.2754 21.6881 32.2033 21.7765C32.0951 21.9004 31.9869 22.0242 31.8787 22.148C31.8426 22.2011 31.7885 22.2365 31.7524 22.2896C31.7163 22.3426 31.6622 22.3957 31.6262 22.4488C31.5901 22.5019 31.536 22.5549 31.4999 22.608C31.4278 22.6965 31.3737 22.7672 31.3015 22.8557C31.2655 22.9088 31.2114 22.9618 31.1753 23.0149C31.1212 23.0857 31.0671 23.1564 31.013 23.2449C30.9048 23.3864 30.8146 23.5279 30.7064 23.6872C29.6784 25.2616 28.939 27.0484 28.5963 29.0121C27.8389 33.2048 29.3718 38.229 31.4819 42.7402C32.2934 41.2011 32.9788 39.7151 33.5198 38.3175C32.2213 34.8501 31.7524 31.8603 32.1492 29.6136C32.3656 28.3575 32.8165 27.1899 33.4116 26.1285C34.6199 24.0056 36.5316 22.3426 38.804 21.3873C40.1385 20.8389 41.6174 20.5205 43.1503 20.5205C43.7996 20.5205 44.4668 20.5736 45.1161 20.6974C48.0557 21.2104 50.6347 22.8026 52.348 25.2086C54.0613 27.6145 54.7285 30.5335 54.2055 33.4171C53.5924 36.8315 50.4363 41.1834 45.3145 45.7123C43.3126 47.4814 41.3468 48.9851 39.8319 50.0642C38.8761 48.649 37.6678 46.7914 36.5136 44.6862C35.8463 45.9777 35.1429 47.216 34.4756 48.3305C36.8201 52.2402 38.9482 54.9646 38.9482 54.9646C38.9482 54.9646 55.9008 44.4739 57.7764 34.054C59.1831 26.1462 53.8088 18.6099 45.7653 17.23Z" fill="white"/>
<defs>
<linearGradient id="paint0_logo_linear" x1="35" y1="-35" x2="-35" y2="35" gradientUnits="userSpaceOnUse">
<stop stop-color="#6979F8"/>
<stop offset="1" stop-color="#3A4CD7"/>
</linearGradient>
</defs>
</svg>
