<svg width="240" height="68" viewBox="0 0 240 68" fill="none" xmlns="http://www.w3.org/2000/svg">
<path d="M59.9364 17.248C59.8635 15.4667 59.8635 13.7539 59.8635 12.1096C59.8635 10.8078 58.77 9.78014 57.3849 9.78014C46.6685 9.71163 38.5036 6.83411 31.7239 0.667996C30.7762 -0.222665 29.1724 -0.222665 28.2246 0.667996C21.4449 6.83411 13.28 9.71163 2.63651 9.71163C1.25139 9.71163 0.157883 10.7393 0.157883 12.0411C0.157883 13.6853 0.157883 15.3982 0.0849822 17.248C-0.279521 34.1705 -0.789823 57.2592 29.1724 66.988C29.464 67.0565 29.6827 67.125 29.9743 67.125C30.2659 67.125 30.5575 67.0565 30.7762 66.988C60.7384 57.2592 60.228 34.1705 59.9364 17.248Z" fill="#6979F8"/>
<path d="M55.7588 19.5574C55.696 18.0283 55.696 16.5579 55.696 15.1464C55.696 14.0289 54.7551 13.1467 53.5633 13.1467C44.3422 13.0879 37.3166 10.6177 31.4828 5.32439C30.6674 4.5598 29.2873 4.5598 28.4719 5.32439C22.6381 10.6177 15.6125 13.0879 6.45417 13.0879C5.26233 13.0879 4.3214 13.9701 4.3214 15.0876C4.3214 16.4991 4.3214 17.9695 4.25867 19.5574C3.94503 34.0846 3.50593 53.905 29.2873 62.2566C29.5383 62.3154 29.7264 62.3742 29.9774 62.3742C30.2283 62.3742 30.4792 62.3154 30.6674 62.2566C56.4488 53.905 56.0097 34.0846 55.7588 19.5574ZM29.9774 58.1984C7.89692 50.6702 8.21057 34.2022 8.52421 19.6751C8.52421 18.7929 8.58694 17.9695 8.58694 17.1461C17.1807 16.7344 24.0809 14.323 29.9774 9.5002C35.8738 14.323 42.774 16.7932 51.3678 17.0872C51.3678 17.9106 51.3678 18.734 51.4305 19.6163C51.7441 34.2022 52.0578 50.6702 29.9774 58.1984Z" fill="white"/>
<path d="M30.0003 18.8501C24.2777 18.8501 18.2949 23.1999 18.2949 30.3641C18.2949 37.1446 28.6997 47.5072 29.0899 47.891C29.35 48.1468 29.6102 48.2748 30.0003 48.2748C30.3905 48.2748 30.6506 48.1468 30.9108 47.891C31.3009 47.5072 41.7058 37.1446 41.7058 30.3641C41.7058 23.1999 35.723 18.8501 30.0003 18.8501ZM30.0003 34.2021C27.7893 34.2021 26.0985 32.539 26.0985 30.3641C26.0985 28.1893 27.7893 26.5261 30.0003 26.5261C32.2114 26.5261 33.9022 28.1893 33.9022 30.3641C33.9022 32.539 32.2114 34.2021 30.0003 34.2021Z" fill="white"/>
<path d="M89.8766 27.9567H94.187C94.1025 23.7791 90.5407 20.821 85.2765 20.821C80.0847 20.821 76.1848 23.7429 76.1969 28.1136C76.1969 31.6634 78.7203 33.7038 82.7892 34.7543L85.6025 35.4787C88.2708 36.1548 90.0336 36.9879 90.0456 38.9077C90.0336 41.0206 88.0293 42.4332 85.1074 42.4332C82.3063 42.4332 80.133 41.1776 79.9519 38.5817H75.5449C75.726 43.4957 79.3844 46.2607 85.1436 46.2607C91.0719 46.2607 94.513 43.3026 94.525 38.9439C94.513 34.6577 90.9753 32.7017 87.2566 31.8203L84.9384 31.2408C82.91 30.7578 80.7125 29.9006 80.7367 27.8359C80.7488 25.9766 82.415 24.6122 85.2161 24.6122C87.8844 24.6122 89.6472 25.8558 89.8766 27.9567Z" fill="#3C475B"/>
<path d="M102.662 46.2607C105.572 46.2607 107.31 44.8963 108.107 43.3388H108.252V45.8864H112.454V33.4744C112.454 28.5724 108.457 27.0994 104.92 27.0994C101.02 27.0994 98.0256 28.8381 97.0597 32.2188L101.141 32.7983C101.575 31.5305 102.807 30.4439 104.944 30.4439C106.972 30.4439 108.083 31.4822 108.083 33.3054V33.3778C108.083 34.6335 106.767 34.6939 103.495 35.044C99.897 35.4304 96.456 36.505 96.456 40.6825C96.456 44.3288 99.1243 46.2607 102.662 46.2607ZM103.797 43.049C101.974 43.049 100.67 42.2159 100.67 40.6101C100.67 38.9318 102.131 38.2315 104.087 37.9538C105.234 37.7969 107.528 37.5071 108.095 37.0483V39.2337C108.095 41.2983 106.429 43.049 103.797 43.049Z" fill="#3C475B"/>
<path d="M125.242 27.3409H121.391V25.88C121.391 24.4311 121.994 23.6222 123.624 23.6222C124.313 23.6222 124.892 23.7791 125.254 23.8878L126.136 20.5071C125.568 20.3139 124.325 20 122.815 20C119.592 20 117.02 21.8473 117.02 25.5902V27.3409H114.279V30.7216H117.02V45.8864H121.391V30.7216H125.242V27.3409Z" fill="#3C475B"/>
<path d="M135.178 46.2486C139.501 46.2486 142.471 44.1357 143.243 40.9119L139.162 40.4531C138.571 42.0227 137.122 42.8438 135.238 42.8438C132.413 42.8438 130.542 40.9844 130.506 37.809H143.425V36.4688C143.425 29.9609 139.513 27.0994 134.949 27.0994C129.636 27.0994 126.171 30.9993 126.171 36.7223C126.171 42.5419 129.588 46.2486 135.178 46.2486ZM130.518 34.8629C130.65 32.4964 132.401 30.5043 135.009 30.5043C137.52 30.5043 139.211 32.3395 139.235 34.8629H130.518Z" fill="#3C475B"/>
<path d="M153.749 45.8864H158.228V37.5313H162.961C168.672 37.5313 171.739 34.1023 171.739 29.3452C171.739 24.6243 168.708 21.1591 163.022 21.1591H153.749V45.8864ZM158.228 33.8487V24.902H162.333C165.69 24.902 167.175 26.7131 167.175 29.3452C167.175 31.9773 165.69 33.8487 162.358 33.8487H158.228Z" fill="#3C475B"/>
<path d="M179.441 46.2607C182.351 46.2607 184.09 44.8963 184.887 43.3388H185.031V45.8864H189.233V33.4744C189.233 28.5724 185.237 27.0994 181.699 27.0994C177.799 27.0994 174.805 28.8381 173.839 32.2188L177.92 32.7983C178.355 31.5305 179.586 30.4439 181.723 30.4439C183.752 30.4439 184.862 31.4822 184.862 33.3054V33.3778C184.862 34.6335 183.546 34.6939 180.274 35.044C176.676 35.4304 173.235 36.505 173.235 40.6825C173.235 44.3288 175.904 46.2607 179.441 46.2607ZM180.576 43.049C178.753 43.049 177.449 42.2159 177.449 40.6101C177.449 38.9318 178.91 38.2315 180.866 37.9538C182.013 37.7969 184.307 37.5071 184.874 37.0483V39.2337C184.874 41.2983 183.208 43.049 180.576 43.049Z" fill="#3C475B"/>
<path d="M201.889 27.3409H198.23V22.8977H193.86V27.3409H191.227V30.7216H193.86V41.0327C193.835 44.522 196.371 46.2365 199.655 46.1399C200.899 46.1037 201.756 45.8622 202.227 45.7053L201.49 42.2884C201.249 42.3487 200.754 42.4574 200.21 42.4574C199.112 42.4574 198.23 42.071 198.23 40.3082V30.7216H201.889V27.3409Z" fill="#3C475B"/>
<path d="M209.313 35.0199C209.313 32.3395 210.979 30.794 213.322 30.794C215.616 30.794 216.968 32.255 216.968 34.7543V45.8864H221.339V34.0781C221.339 29.5987 218.803 27.0994 214.952 27.0994C212.102 27.0994 210.291 28.3913 209.434 30.4922H209.217V21.1591H204.942V45.8864H209.313V35.0199Z" fill="#3C475B"/>
<path d="M239.452 32.2429C238.848 29.1037 236.337 27.0994 231.99 27.0994C227.523 27.0994 224.48 29.2969 224.492 32.7259C224.48 35.4304 226.146 37.2173 229.708 37.9538L232.871 38.6179C234.574 38.9922 235.371 39.6804 235.371 40.7308C235.371 41.9986 233.994 42.9524 231.918 42.9524C229.913 42.9524 228.609 42.0831 228.235 40.4169L223.973 40.8274C224.516 44.2322 227.378 46.2486 231.93 46.2486C236.566 46.2486 239.838 43.8459 239.85 40.3324C239.838 37.6882 238.136 36.0703 234.634 35.3097L231.471 34.6335C229.587 34.2109 228.839 33.559 228.851 32.4844C228.839 31.2287 230.227 30.3594 232.05 30.3594C234.067 30.3594 235.129 31.4581 235.467 32.6776L239.452 32.2429Z" fill="#3C475B"/>
</svg>
