<svg width="335" height="56" viewBox="0 0 335 56" fill="none" xmlns="http://www.w3.org/2000/svg">
<path d="M49.947 14.3733C49.8863 12.8889 49.8863 11.4616 49.8863 10.0913C49.8863 9.00652 48.975 8.15012 47.8208 8.15012C38.8904 8.09302 32.0864 5.69509 26.4366 0.556663C25.6468 -0.185554 24.3103 -0.185554 23.5205 0.556663C17.8707 5.69509 11.0667 8.09302 2.19709 8.09302C1.04283 8.09302 0.131569 8.94943 0.131569 10.0342C0.131569 11.4045 0.131569 12.8318 0.0708185 14.3733C-0.232934 28.4755 -0.658186 47.716 24.3103 55.8233C24.5533 55.8804 24.7356 55.9375 24.9786 55.9375C25.2216 55.9375 25.4646 55.8804 25.6468 55.8233C50.6153 47.716 50.19 28.4755 49.947 14.3733Z" fill="#6979F8"/>
<path d="M46.466 16.2979C46.4137 15.0235 46.4137 13.7982 46.4137 12.622C46.4137 11.6907 45.6296 10.9556 44.6364 10.9556C36.9521 10.9065 31.0975 8.84804 26.236 4.43697C25.5565 3.79982 24.4064 3.79982 23.7269 4.43697C18.8654 8.84804 13.0108 10.9065 5.3788 10.9065C4.3856 10.9065 3.60149 11.6417 3.60149 12.5729C3.60149 13.7492 3.60149 14.9745 3.54922 16.2979C3.28785 28.4038 2.92193 44.9208 24.4064 51.8805C24.6155 51.9295 24.7724 51.9785 24.9815 51.9785C25.1905 51.9785 25.3996 51.9295 25.5565 51.8805C47.041 44.9208 46.675 28.4038 46.466 16.2979ZM24.9815 48.4987C6.58109 42.2251 6.84246 28.5018 7.10383 16.3959C7.10383 15.6607 7.15611 14.9745 7.15611 14.2884C14.3176 13.9453 20.0677 11.9358 24.9815 7.91682C29.8952 11.9358 35.6453 13.9943 42.8068 14.2394C42.8068 14.9255 42.8068 15.6117 42.8591 16.3469C43.1204 28.5018 43.3818 42.2251 24.9815 48.4987Z" fill="white"/>
<path d="M25.0006 15.7084C20.2317 15.7084 15.2461 19.3332 15.2461 25.3034C15.2461 30.9538 23.9168 39.5893 24.2419 39.9091C24.4587 40.1224 24.6755 40.229 25.0006 40.229C25.3258 40.229 25.5425 40.1224 25.7593 39.9091C26.0844 39.5893 34.7551 30.9538 34.7551 25.3034C34.7551 19.3332 29.7695 15.7084 25.0006 15.7084ZM25.0006 28.5018C23.1581 28.5018 21.7491 27.1158 21.7491 25.3034C21.7491 23.491 23.1581 22.1051 25.0006 22.1051C26.8431 22.1051 28.2521 23.491 28.2521 25.3034C28.2521 27.1158 26.8431 28.5018 25.0006 28.5018Z" fill="white"/>
<path d="M88.6039 24.5021C87.8432 19.0085 83.6174 15.821 78.1358 15.821C71.6763 15.821 66.8105 20.5298 66.8105 28.5227C66.8105 36.5036 71.6159 41.2244 78.1358 41.2244C84.0158 41.2244 87.9157 37.4212 88.6039 32.7003L84.0882 32.6761C83.5208 35.5739 81.1543 37.2038 78.1962 37.2038C74.1877 37.2038 71.3141 34.1974 71.3141 28.5227C71.3141 22.9446 74.1635 19.8416 78.2083 19.8416C81.2147 19.8416 83.5691 21.544 84.0882 24.5021H88.6039Z" fill="currentColor"/>
<path d="M113.801 28.5227C113.801 20.5298 108.923 15.821 102.44 15.821C95.9439 15.821 91.0781 20.5298 91.0781 28.5227C91.0781 36.5036 95.9439 41.2244 102.44 41.2244C108.923 41.2244 113.801 36.5156 113.801 28.5227ZM109.298 28.5227C109.298 34.1491 106.472 37.2038 102.44 37.2038C98.419 37.2038 95.5817 34.1491 95.5817 28.5227C95.5817 22.8963 98.419 19.8416 102.44 19.8416C106.472 19.8416 109.298 22.8963 109.298 28.5227Z" fill="currentColor"/>
<path d="M119.315 16.1591H114.401L123.106 40.8864H128.636L137.353 16.1591H132.427L126.004 35.6222H125.75L119.315 16.1591Z" fill="currentColor"/>
<path d="M144.09 16.1591H139.61V40.8864H144.09V16.1591Z" fill="currentColor"/>
<path d="M156.32 40.8864C163.854 40.8864 168.321 36.2259 168.321 28.4986C168.321 20.7955 163.854 16.1591 156.489 16.1591H147.94V40.8864H156.32ZM152.42 37.0107V20.0348H156.235C161.258 20.0348 163.878 22.8359 163.878 28.4986C163.878 34.1854 161.258 37.0107 156.102 37.0107H152.42Z" fill="currentColor"/>
<path d="M192.449 22.9567H196.759C196.675 18.7791 193.113 15.821 187.849 15.821C182.657 15.821 178.757 18.7429 178.769 23.1136C178.769 26.6634 181.293 28.7038 185.362 29.7543L188.175 30.4787C190.843 31.1548 192.606 31.9879 192.618 33.9077C192.606 36.0206 190.602 37.4332 187.68 37.4332C184.879 37.4332 182.705 36.1776 182.524 33.5817H178.117C178.298 38.4957 181.957 41.2607 187.716 41.2607C193.644 41.2607 197.085 38.3026 197.097 33.9439C197.085 29.6577 193.548 27.7017 189.829 26.8203L187.511 26.2408C185.482 25.7578 183.285 24.9006 183.309 22.8359C183.321 20.9766 184.987 19.6122 187.788 19.6122C190.457 19.6122 192.219 20.8558 192.449 22.9567Z" fill="currentColor"/>
<path d="M205.234 41.2607C208.144 41.2607 209.883 39.8963 210.68 38.3388H210.824V40.8864H215.026V28.4744C215.026 23.5724 211.03 22.0994 207.492 22.0994C203.592 22.0994 200.598 23.8381 199.632 27.2188L203.713 27.7983C204.148 26.5305 205.379 25.4439 207.516 25.4439C209.545 25.4439 210.655 26.4822 210.655 28.3054V28.3778C210.655 29.6335 209.339 29.6939 206.067 30.044C202.469 30.4304 199.028 31.505 199.028 35.6825C199.028 39.3288 201.697 41.2607 205.234 41.2607ZM206.369 38.049C204.546 38.049 203.242 37.2159 203.242 35.6101C203.242 33.9318 204.703 33.2315 206.659 32.9538C207.806 32.7969 210.1 32.5071 210.667 32.0483V34.2337C210.667 36.2983 209.001 38.049 206.369 38.049Z" fill="currentColor"/>
<path d="M227.814 22.3409H223.963V20.88C223.963 19.4311 224.567 18.6222 226.197 18.6222C226.885 18.6222 227.464 18.7791 227.827 18.8878L228.708 15.5071C228.14 15.3139 226.897 15 225.388 15C222.164 15 219.592 16.8473 219.592 20.5902V22.3409H216.851V25.7216H219.592V40.8864H223.963V25.7216H227.814V22.3409Z" fill="currentColor"/>
<path d="M237.75 41.2486C242.073 41.2486 245.043 39.1357 245.816 35.9119L241.735 35.4531C241.143 37.0227 239.694 37.8438 237.811 37.8438C234.985 37.8438 233.114 35.9844 233.078 32.809H245.997V31.4688C245.997 24.9609 242.085 22.0994 237.521 22.0994C232.208 22.0994 228.743 25.9993 228.743 31.7223C228.743 37.5419 232.16 41.2486 237.75 41.2486ZM233.09 29.8629C233.223 27.4964 234.973 25.5043 237.581 25.5043C240.093 25.5043 241.783 27.3395 241.807 29.8629H233.09Z" fill="currentColor"/>
<path d="M248.888 40.8864H253.367V32.5313H258.1C263.811 32.5313 266.878 29.1023 266.878 24.3452C266.878 19.6243 263.847 16.1591 258.16 16.1591H248.888V40.8864ZM253.367 28.8487V19.902H257.472C260.829 19.902 262.314 21.7131 262.314 24.3452C262.314 26.9773 260.829 28.8487 257.496 28.8487H253.367Z" fill="currentColor"/>
<path d="M274.58 41.2607C277.49 41.2607 279.228 39.8963 280.025 38.3388H280.17V40.8864H284.372V28.4744C284.372 23.5724 280.375 22.0994 276.838 22.0994C272.938 22.0994 269.944 23.8381 268.978 27.2188L273.059 27.7983C273.493 26.5305 274.725 25.4439 276.862 25.4439C278.89 25.4439 280.001 26.4822 280.001 28.3054V28.3778C280.001 29.6335 278.685 29.6939 275.413 30.044C271.815 30.4304 268.374 31.505 268.374 35.6825C268.374 39.3288 271.042 41.2607 274.58 41.2607ZM275.715 38.049C273.892 38.049 272.588 37.2159 272.588 35.6101C272.588 33.9318 274.049 33.2315 276.005 32.9538C277.152 32.7969 279.446 32.5071 280.013 32.0483V34.2337C280.013 36.2983 278.347 38.049 275.715 38.049Z" fill="currentColor"/>
<path d="M297.027 22.3409H293.369V17.8977H288.998V22.3409H286.366V25.7216H288.998V36.0327C288.974 39.522 291.51 41.2365 294.794 41.1399C296.037 41.1037 296.895 40.8622 297.365 40.7053L296.629 37.2884C296.387 37.3487 295.892 37.4574 295.349 37.4574C294.25 37.4574 293.369 37.071 293.369 35.3082V25.7216H297.027V22.3409Z" fill="currentColor"/>
<path d="M304.452 30.0199C304.452 27.3395 306.118 25.794 308.46 25.794C310.754 25.794 312.107 27.255 312.107 29.7543V40.8864H316.477V29.0781C316.477 24.5987 313.942 22.0994 310.09 22.0994C307.241 22.0994 305.43 23.3913 304.573 25.4922H304.355V16.1591H300.081V40.8864H304.452V30.0199Z" fill="currentColor"/>
<path d="M334.59 27.2429C333.987 24.1037 331.475 22.0994 327.129 22.0994C322.661 22.0994 319.619 24.2969 319.631 27.7259C319.619 30.4304 321.285 32.2173 324.847 32.9538L328.01 33.6179C329.713 33.9922 330.509 34.6804 330.509 35.7308C330.509 36.9986 329.133 37.9524 327.056 37.9524C325.052 37.9524 323.748 37.0831 323.374 35.4169L319.112 35.8274C319.655 39.2322 322.517 41.2486 327.068 41.2486C331.705 41.2486 334.977 38.8459 334.989 35.3324C334.977 32.6882 333.274 31.0703 329.773 30.3097L326.61 29.6335C324.726 29.2109 323.977 28.559 323.99 27.4844C323.977 26.2287 325.366 25.3594 327.189 25.3594C329.205 25.3594 330.268 26.4581 330.606 27.6776L334.59 27.2429Z" fill="currentColor"/>
</svg>
