<svg width="375" height="501" viewBox="0 0 375 501" fill="none" xmlns="http://www.w3.org/2000/svg">
<mask id="mask0" mask-type="alpha" maskUnits="userSpaceOnUse" x="0" y="0" width="375" height="501">
<path d="M0 30C0 13.4315 13.4315 0 30 0H345C361.569 0 375 13.4315 375 30V471C375 487.569 361.569 501 345 501H30C13.4315 501 0 487.569 0 471V30Z" fill="#E9EAF0"/>
</mask>
<g mask="url(#mask0)">
<path d="M4 408.5C68.5 305.5 215.07 400.912 302 305.5C384 215.5 297.287 96.2904 279 0" stroke="#6979F8" stroke-dasharray="3 5"/>
<path d="M-7.5 512.5C-7.5 382 124.064 420.535 228 344C283 303.5 316 162.5 216 35.5C145.06 -54.5934 -7.5 -163 27.5 -270" stroke="#FF5656" stroke-dasharray="3 5"/>
</g>
<path d="M222.827 311.5C215.578 311.5 208 317.008 208 326.08C208 334.666 221.179 347.788 221.674 348.274C222.003 348.598 222.333 348.76 222.827 348.76C223.321 348.76 223.651 348.598 223.98 348.274C224.474 347.788 237.654 334.666 237.654 326.08C237.654 317.008 230.076 311.5 222.827 311.5ZM222.827 330.94C220.026 330.94 217.885 328.834 217.885 326.08C217.885 323.326 220.026 321.22 222.827 321.22C225.627 321.22 227.769 323.326 227.769 326.08C227.769 328.834 225.627 330.94 222.827 330.94Z" fill="#6979F8"/>
</svg>
