<svg width="375" height="501" viewBox="0 0 375 501" fill="none" xmlns="http://www.w3.org/2000/svg">
<path d="M223.827 310.5C216.578 310.5 209 316.008 209 325.08C209 333.666 222.179 346.788 222.674 347.274C223.003 347.598 223.333 347.76 223.827 347.76C224.321 347.76 224.651 347.598 224.98 347.274C225.474 346.788 238.654 333.666 238.654 325.08C238.654 316.008 231.076 310.5 223.827 310.5ZM223.827 329.94C221.026 329.94 218.885 327.834 218.885 325.08C218.885 322.326 221.026 320.22 223.827 320.22C226.627 320.22 228.769 322.326 228.769 325.08C228.769 327.834 226.627 329.94 223.827 329.94Z" fill="#6979F8"/>
<mask id="mask0" mask-type="alpha" maskUnits="userSpaceOnUse" x="0" y="0" width="375" height="501">
<path d="M0 0H375V501H0V0Z" fill="#E9EAF0"/>
</mask>
<g mask="url(#mask0)">
<path d="M-1.5 410.5C63 307.5 209.57 402.912 296.5 307.5C378.5 217.5 291.787 98.2904 273.5 2" stroke="#6979F8" stroke-dasharray="3 5"/>
</g>
</svg>
