<svg width="375" height="501" viewBox="0 0 375 501" fill="none" xmlns="http://www.w3.org/2000/svg">
<mask id="mask0" mask-type="alpha" maskUnits="userSpaceOnUse" x="0" y="0" width="375" height="501">
<path d="M0 30C0 13.4315 13.4315 0 30 0H345C361.569 0 375 13.4315 375 30V471C375 487.569 361.569 501 345 501H30C13.4315 501 0 487.569 0 471V30Z" fill="#E9EAF0"/>
</mask>
<g mask="url(#mask0)">
<path d="M-4 408.5C60.5 305.5 207.07 400.912 294 305.5C376 215.5 289.287 96.2904 271 0" stroke="#FF5656" stroke-dasharray="3 5"/>
<path d="M-10.5 512.5C-10.5 382 121.064 425.035 225 348.5C280 308 313 162.5 213 35.5C142.06 -54.5934 -10.5 -163 24.5 -270" stroke="#FF5656" stroke-dasharray="3 5"/>
<path d="M352.501 633.5C501.001 492.5 260.98 358.667 191.501 336C121.001 313 -21.4125 307.119 -46.9996 141.5C-74.4995 -36.5 118 -106 134.5 -296" stroke="#6979F8" stroke-dasharray="3 5"/>
</g>
<path d="M221.827 314.5C214.578 314.5 207 320.008 207 329.08C207 337.666 220.179 350.788 220.674 351.274C221.003 351.598 221.333 351.76 221.827 351.76C222.321 351.76 222.651 351.598 222.98 351.274C223.474 350.788 236.654 337.666 236.654 329.08C236.654 320.008 229.076 314.5 221.827 314.5ZM221.827 333.94C219.026 333.94 216.885 331.834 216.885 329.08C216.885 326.326 219.026 324.22 221.827 324.22C224.627 324.22 226.769 326.326 226.769 329.08C226.769 331.834 224.627 333.94 221.827 333.94Z" fill="#FF5656"/>
</svg>
