<svg width="369" height="68" viewBox="0 0 369 68" fill="none" xmlns="http://www.w3.org/2000/svg">
<path d="M46.5002 31.4C46.5002 40.3 40.0002 49.6 27.1002 49.6C13.5002 49.6 5.8002 42.5 5.8002 31.6V4.4L0.700195 0.4V0H20.0002V0.4L14.5002 4.4V31.3C14.5002 39.6 19.5002 44.5 28.8002 44.5C37.3002 44.5 42.3002 38.7 42.3002 31.2V4.4L36.8002 0.4V0H51.3002V0.4L46.4002 4.4V31.4H46.5002ZM69.2002 67.4V67.8H50.8002V67.4L55.0002 64V23.6L50.9002 21V20.5C51.6002 20.3 57.1002 18.1 62.8002 16.6V21.8C65.3002 19.2 68.8002 16.9 72.7002 16.9C80.3002 16.9 85.1002 22.9 85.1002 31.4C85.1002 40.8 79.0002 49.3 67.7002 49.3C66.0002 49.3 64.6002 49.2 62.8002 49.1V64L69.2002 67.4ZM62.8002 24V44.9C64.0002 45.6 65.5002 46.1 67.4002 46.1C73.1002 46.1 76.9002 40.7 76.9002 33.3C76.9002 25.9 73.5002 22 68.6002 22C65.6002 22 63.8002 23.1 62.8002 24ZM106.7 18V25H106.3C103.8 22.1 101.6 20.1 98.8002 20.1C97.0002 20.1 95.4002 21.2 95.4002 23.3C95.4002 25.8 97.4002 27 100.7 29.1C104.8 31.8 109 34.2 109 39.8C109 45.5 104.3 49.6 97.0002 49.6C93.2002 49.6 89.6002 48.5 88.3002 47.8C88.0002 45.9 87.6002 40.8 87.8002 37.2H88.3002C89.7002 40.7 92.6002 46.1 97.4002 46.1C100 46.1 101.8 44.3 101.8 41.9C101.8 39 99.9002 37.7 96.1002 35.4C91.9002 32.7 88.8002 30.1 88.8002 25.4C88.8002 20.3 93.2002 17 99.7002 17C103 17 105.8 17.7 106.7 18ZM122 22.2V39.3C122 42 123.6 44.5 128.3 44.5C130.9 44.5 133.3 43.8 134.5 43.2L134.8 43.7C133.2 45.7 129.3 49.5 123.7 49.5C116.8 49.5 114.1 45.1 114.1 41.5V22.2H110V21.7L122 12.2V18H136.7L134 22.2H122ZM148.7 21.2C146.4 21.2 144.9 22.5 144.4 23V28.2L137.2 25.8V25.4C139.5 22.7 144.3 16.8 152 16.8C158.6 16.8 161.3 21.1 161.3 24.3C161.3 28.5 161.1 40.8 161.1 42.8C162.6 43.8 164.5 44.7 166.3 45.2V45.6L160.9 50C158.3 49.1 155.5 47.4 154 45.6C151.7 47.6 148.3 49.6 145.9 49.6C140.2 49.6 136.6 45.9 136.6 41.6C136.6 38.7 138.2 36.7 139.4 36.3L153.7 32.3V26.1C153.7 23.3 152 21.2 148.7 21.2ZM153.7 35.2C150.9 36.1 145 38 144.5 38.2C144.1 38.4 143.8 39.3 143.8 40.3C143.8 42.8 145.6 45 149 45C151.1 45 152.8 44.2 153.5 43.7C153.6 41.7 153.7 38.6 153.7 35.2ZM177.5 22.2V39.3C177.5 42 179.1 44.5 183.8 44.5C186.4 44.5 188.8 43.8 190 43.2L190.3 43.7C188.7 45.7 184.8 49.5 179.2 49.5C172.3 49.5 169.6 45.1 169.6 41.5V22.2H165.4V21.7L177.4 12.2V18H192.1L189.4 22.2H177.5ZM211.2 44.1C214.5 44.1 217.5 43.4 219.2 42.6L219.5 43.1C217.8 45.2 212.8 49.5 206.6 49.5C198.1 49.5 191.8 43.4 191.8 33.7C191.8 24.2 199.1 16.9 206.6 16.9C214.2 16.9 217.2 23.1 218.9 28.1V28.2H199.4C199.3 29.1 199.3 30 199.3 31C199.2 39.4 204 44.1 211.2 44.1ZM200 25.6H211.1C210.7 21.2 207.9 20 206.2 20C203.9 20 201.3 21.9 200 25.6ZM232.2 22.5C235 19.7 238.8 17 242.8 17C247.2 17 250.2 19.7 251.3 22.8C254.1 20.1 258.1 17 262.4 17C267.7 17 271.3 20.9 271.3 24.5V44.9L275.5 48.4V48.8H259.4V48.4L263.5 44.9V27.4C263.5 24.5 261.9 22.1 258 22.1C255.1 22.1 253 23.8 251.7 25.1V45L255.9 48.5V48.9H239.9V48.5L244 45V27.4C244 24.5 242.3 22.1 238.5 22.1C235.8 22.1 233.6 23.7 232.3 25V45L236.4 48.4V48.8H220.2V48.4L224.4 44.9V23.6L220.3 21V20.5C221 20.3 226.9 18.1 232.2 16.7V22.5ZM294.7 44.1C298 44.1 301 43.4 302.7 42.6L303 43.1C301.3 45.2 296.3 49.5 290.1 49.5C281.6 49.5 275.3 43.4 275.3 33.7C275.3 24.2 282.6 16.9 290.1 16.9C297.7 16.9 300.7 23.1 302.4 28.1V28.2H282.9C282.8 29.1 282.8 30 282.8 31C282.7 39.4 287.5 44.1 294.7 44.1ZM283.6 25.6H294.7C294.3 21.2 291.5 20 289.8 20C287.4 20 284.8 21.9 283.6 25.6ZM303.7 48.8V48.4L307.9 45V23.6L303.8 21V20.5C304.5 20.3 310.4 18.1 315.7 16.7V22.3C318.6 19.4 322.7 16.9 326.8 16.9C332.4 16.9 336.4 21 336.4 24.6V45L340.7 48.4V48.8H324.5V48.4L328.6 45V27.1C328.6 24.5 326.7 22 322.5 22C319.4 22 317.1 23.6 315.8 24.9V45L320 48.4V48.8H303.7ZM354.4 22.2V39.3C354.4 42 356 44.5 360.7 44.5C363.3 44.5 365.7 43.8 366.9 43.2L367.2 43.7C365.6 45.7 361.7 49.5 356.1 49.5C349.2 49.5 346.5 45.1 346.5 41.5V22.2H342.3V21.7L354.3 12.2V18H369L366.3 22.2H354.4Z" fill="black"/>
</svg>
